HIERARCHY
ROOT Hips
{
	OFFSET 0.00000 0.00000 0.00000
	CHANNELS 6 Xposition Yposition Zposition Zrotation Yrotation Xrotation 
	JOINT LHipJoint
	{
		OFFSET 0 0 0
		CHANNELS 3 Zrotation Yrotation Xrotation
		JOINT LeftUpLeg
		{
			OFFSET 1.34019 -1.87553 0.90315
			CHANNELS 3 Zrotation Yrotation Xrotation
			JOINT LeftLeg
			{
				OFFSET 2.55316 -7.01474 0.00000
				CHANNELS 3 Zrotation Yrotation Xrotation
				JOINT LeftFoot
				{
					OFFSET 2.64657 -7.27139 0.00000
					CHANNELS 3 Zrotation Yrotation Xrotation
					JOINT LeftToeBase
					{
						OFFSET 0.24207 -0.66507 2.14489
						CHANNELS 3 Zrotation Yrotation Xrotation
						End Site
						{
							OFFSET 0.00000 -0.00000 1.12451
						}
					}
				}
			}
		}
	}
	JOINT RHipJoint
	{
		OFFSET 0 0 0
		CHANNELS 3 Zrotation Yrotation Xrotation
		JOINT RightUpLeg
		{
			OFFSET -1.28320 -1.87553 0.90315
			CHANNELS 3 Zrotation Yrotation Xrotation
			JOINT RightLeg
			{
				OFFSET -2.60484 -7.15674 0.00000
				CHANNELS 3 Zrotation Yrotation Xrotation
				JOINT RightFoot
				{
					OFFSET -2.60296 -7.15159 0.00000
					CHANNELS 3 Zrotation Yrotation Xrotation
					JOINT RightToeBase
					{
						OFFSET -0.31082 -0.85398 2.28998
						CHANNELS 3 Zrotation Yrotation Xrotation
						End Site
						{
							OFFSET -0.00000 -0.00000 1.21611
						}
					}
				}
			}
		}
	}
	JOINT LowerBack
	{
		OFFSET 0 0 0
		CHANNELS 3 Zrotation Yrotation Xrotation
		JOINT Spine
		{
			OFFSET -0.00160 2.05581 -0.15156
			CHANNELS 3 Zrotation Yrotation Xrotation
			JOINT Spine1
			{
				OFFSET 0.04594 2.06326 -0.01617
				CHANNELS 3 Zrotation Yrotation Xrotation
				JOINT Neck
				{
					OFFSET 0 0 0
					CHANNELS 3 Zrotation Yrotation Xrotation
					JOINT Neck1
					{
						OFFSET 0.03753 1.73883 0.26751
						CHANNELS 3 Zrotation Yrotation Xrotation
						JOINT Head
						{
							OFFSET -0.09795 1.76129 -0.31794
							CHANNELS 3 Zrotation Yrotation Xrotation
							End Site
							{
								OFFSET -0.03611 1.79987 -0.13846
							}
						}
					}
				}
				JOINT LeftShoulder
				{
					OFFSET 0 0 0
					CHANNELS 3 Zrotation Yrotation Xrotation
					JOINT LeftArm
					{
						OFFSET 3.30667 1.29205 -0.22445
						CHANNELS 3 Zrotation Yrotation Xrotation
						JOINT LeftForeArm
						{
							OFFSET 4.92785 -0.00000 -0.00000
							CHANNELS 3 Zrotation Yrotation Xrotation
							JOINT LeftHand
							{
								OFFSET 3.44052 -0.00000 0.00000
								CHANNELS 3 Zrotation Yrotation Xrotation
								JOINT LeftFingerBase
								{
									OFFSET 0 0 0
									CHANNELS 3 Zrotation Yrotation Xrotation
									JOINT LeftHandIndex1
									{
										OFFSET 0.65433 -0.00000 0.00000
										CHANNELS 3 Zrotation Yrotation Xrotation
										End Site
										{
											OFFSET 0.52753 -0.00000 0.00000
										}
									}
								}
								JOINT LThumb
								{
									OFFSET 0 0 0
									CHANNELS 3 Zrotation Yrotation Xrotation
									End Site
									{
										OFFSET 0.53559 -0.00000 0.53559
									}
								}
							}
						}
					}
				}
				JOINT RightShoulder
				{
					OFFSET 0 0 0
					CHANNELS 3 Zrotation Yrotation Xrotation
					JOINT RightArm
					{
						OFFSET -3.20032 1.49783 -0.27688
						CHANNELS 3 Zrotation Yrotation Xrotation
						JOINT RightForeArm
						{
							OFFSET -5.09181 -0.00000 -0.00000
							CHANNELS 3 Zrotation Yrotation Xrotation
							JOINT RightHand
							{
								OFFSET -3.49865 -0.00000 -0.00000
								CHANNELS 3 Zrotation Yrotation Xrotation
								JOINT RightFingerBase
								{
									OFFSET 0 0 0
									CHANNELS 3 Zrotation Yrotation Xrotation
									JOINT RightHandIndex1
									{
										OFFSET -0.66641 -0.00000 0.00000
										CHANNELS 3 Zrotation Yrotation Xrotation
										End Site
										{
											OFFSET -0.53728 -0.00000 0.00000
										}
									}
								}
								JOINT RThumb
								{
									OFFSET 0 0 0
									CHANNELS 3 Zrotation Yrotation Xrotation
									End Site
									{
										OFFSET -0.54548 -0.00000 0.54548
									}
								}
							}
						}
					}
				}
			}
		}
	}
}
MOTION
Frames: 8
Frame Time: .0083333
0.3909 17.7799 -30.4072 0 0 0 0 0 0 -21 0 0 0 0 0 0 0 0 0 0 0 0 0 0 21 0 0 0 0 0 0 0 0 0 0 0 0 0 0 0 0 0 0 0 0 0 0 -16 0 0 21 0 0 11 0 0 0 -8 0 0 0 0 0 0 0 0 0 0 0 0 0 0 0 0 0 0 0 0 8 0 0 0 0 0 0 0 0 0 0 0 0 0 0 0 0 0
0.3909 17.7799 -30.4072 -2.3458 -2.7033 4.3265 0.0000 0.0000 0.0000 -16.0831 -3.8004 -9.3718 2.6227 10.0576 29.1635 -0.1257 15.9948 -21.4096 0.2101 -2.9514 -8.1433 0.0000 0.0000 0.0000 18.4639 6.2392 -12.5252 -3.2438 -11.0796 32.5488 -0.3577 -11.9232 -21.1071 -0.0678 1.6795 -4.6206 -0.2141 -3.4288 1.9798 3.9855 -4.4931 -1.7064 4.4072 -2.2071 -2.5276 11.9391 3.8652 -18.7924 -13.3956 6.1262 31.7132 -6.6412 2.2499 15.0107 -0.0000 -0.0000 0.0000 -87.7594 6.1693 20.3334 17.2827 -27.2290 -4.2159 -0.0000 0.0000 -7.7265 12.2497 0.2742 0.0595 -7.1250 0.0000 -0.0000 -11.2622 30.1565 4.1523 -0.0000 -0.0000 0.0000 81.7230 -4.3860 17.6436 -14.9467 24.0717 -3.2042 0.0000 -0.0000 -6.7367 -14.1909 -1.3236 0.3347 7.1250 -0.0000 -0.0000 9.8603 -31.2522 3.3578
0.3886 17.7795 -30.4070 -2.2938 -2.7099 4.3411 0.0000 0.0000 0.0000 -16.1320 -3.7873 -9.3808 2.6187 10.0506 29.1409 -0.1257 15.9858 -21.3962 0.2114 -2.9599 -8.1670 0.0000 0.0000 0.0000 18.4073 6.2366 -12.5697 -3.2522 -11.0926 32.5928 -0.3623 -11.9031 -21.1310 -0.0676 1.6778 -4.6161 -0.2101 -3.3349 2.0131 3.8732 -4.3692 -1.6962 4.2863 -2.1455 -2.5541 11.7463 3.6486 -18.8804 -13.1319 5.7727 31.8062 -6.5591 2.1059 14.9886 -0.0000 0.0000 0.0000 -87.5116 6.0950 20.7227 17.2622 -27.2022 -4.2065 -0.0000 0.0000 -7.7971 12.2624 0.3199 0.0695 -7.1250 0.0000 -0.0000 -11.2576 30.2025 4.1379 -0.0000 0.0000 0.0000 81.9515 -4.4482 17.2746 -14.9337 24.0537 -3.1989 0.0000 -0.0000 -6.6442 -14.1997 -1.3439 0.3400 7.1250 -0.0000 -0.0000 9.8556 -31.2731 3.3511
0.3861 17.7789 -30.4066 -2.2376 -2.7157 4.3538 0.0000 0.0000 0.0000 -16.1846 -3.7714 -9.3900 2.6152 10.0444 29.1205 -0.1256 15.9748 -21.3808 0.2128 -2.9698 -8.1947 0.0000 0.0000 0.0000 18.3466 6.2286 -12.6131 -3.2605 -11.1052 32.6355 -0.3665 -11.8820 -21.1494 -0.0677 1.6788 -4.6188 -0.2032 -3.2333 2.0500 3.7530 -4.2350 -1.6861 4.1553 -2.0788 -2.5837 11.5256 3.4099 -18.9647 -12.8466 5.3890 31.9018 -6.4678 1.9487 14.9620 -0.0000 0.0000 0.0000 -87.2503 6.0188 21.1399 17.2445 -27.1790 -4.1984 -0.0000 0.0000 -7.8690 12.2541 0.3905 0.0848 -7.1250 0.0000 -0.0000 -11.2724 30.2734 4.1241 -0.0000 0.0000 0.0000 82.1979 -4.5132 16.8719 -14.9226 24.0382 -3.1944 0.0000 -0.0000 -6.5454 -14.1978 -1.3453 0.3403 7.1250 -0.0000 -0.0000 9.8572 -31.2744 3.3514
0.3833 17.7783 -30.4064 -2.1936 -2.7211 4.3628 0.0000 0.0000 0.0000 -16.2204 -3.7489 -9.3988 2.6121 10.0389 29.1028 -0.1247 15.9573 -21.3648 0.2137 -2.9760 -8.2118 0.0000 0.0000 0.0000 18.3032 6.2238 -12.6498 -3.2681 -11.1169 32.6752 -0.3692 -11.8693 -21.1630 -0.0680 1.6818 -4.6271 -0.2416 -3.2439 2.0874 3.7424 -4.2502 -1.6812 4.1687 -2.0857 -2.5966 11.5083 3.4079 -18.9699 -12.8241 5.3838 31.9075 -6.4560 1.9470 14.9635 -0.0000 0.0000 0.0000 -87.2347 6.0045 21.1658 17.2489 -27.1848 -4.2004 -0.0000 0.0000 -7.8863 12.2363 0.4606 0.0999 -7.1250 0.0000 -0.0000 -11.2946 30.3434 4.1132 -0.0000 0.0000 0.0000 82.2132 -4.5148 16.8530 -14.8967 24.0020 -3.1838 0.0000 -0.0000 -6.4900 -14.1917 -1.3365 0.3380 7.1250 -0.0000 -0.0000 9.8611 -31.2654 3.3549
0.3799 17.7779 -30.4062 -2.1589 -2.7193 4.3750 0.0000 0.0000 0.0000 -16.2421 -3.7303 -9.4131 2.6096 10.0345 29.0885 -0.1232 15.9341 -21.3458 0.2140 -2.9781 -8.2179 0.0000 0.0000 0.0000 18.2733 6.2188 -12.6862 -3.2750 -11.1274 32.7108 -0.3717 -11.8602 -21.1778 -0.0680 1.6822 -4.6280 -0.3581 -3.4736 2.1194 3.9293 -4.5566 -1.7074 4.4417 -2.2356 -2.5957 11.9564 3.8821 -18.7971 -13.3556 6.1328 31.7553 -6.6289 2.2598 15.0316 -0.0000 0.0000 0.0000 -87.6811 6.1417 20.4437 17.2909 -27.2396 -4.2196 -0.0000 0.0000 -7.7991 12.2157 0.5157 0.1116 -7.1250 0.0000 -0.0000 -11.3172 30.3982 4.1065 -0.0000 0.0000 0.0000 81.7902 -4.4346 17.5805 -14.8473 23.9329 -3.1637 0.0000 -0.0000 -6.5314 -14.1872 -1.3381 0.3382 7.1250 -0.0000 -0.0000 9.8648 -31.2669 3.3559
0.3762 17.7776 -30.4060 -2.1378 -2.7091 4.3908 0.0000 0.0000 0.0000 -16.2449 -3.7162 -9.4333 2.6080 10.0317 29.0793 -0.1209 15.9046 -21.3257 0.2139 -2.9773 -8.2155 0.0000 0.0000 0.0000 18.2623 6.2138 -12.7218 -3.2806 -11.1361 32.7401 -0.3728 -11.8619 -21.1911 -0.0682 1.6843 -4.6340 -0.4437 -3.6697 2.1260 4.0852 -4.8188 -1.7118 4.6607 -2.3650 -2.5635 12.3443 4.2809 -18.6304 -13.8048 6.7598 31.5882 -6.7745 2.5241 15.0747 0.0000 -0.0000 0.0000 -88.0501 6.2241 19.8359 17.3235 -27.2823 -4.2346 -0.0000 0.0000 -7.7090 12.2001 0.5148 0.1113 -7.1250 0.0000 -0.0000 -11.3293 30.3970 4.1114 0.0000 -0.0000 0.0000 81.4465 -4.3351 18.1869 -14.8029 23.8708 -3.1457 0.0000 -0.0000 -6.5734 -14.1995 -1.3471 0.3408 7.1250 -0.0000 -0.0000 9.8561 -31.2763 3.3506
0.3721 17.7776 -30.4057 -2.1253 -2.6957 4.4109 0.0000 0.0000 0.0000 -16.2358 -3.7071 -9.4582 2.6070 10.0298 29.0734 -0.1187 15.8752 -21.3055 0.2139 -2.9776 -8.2163 0.0000 0.0000 0.0000 18.2639 6.2112 -12.7567 -3.2851 -11.1429 32.7633 -0.3735 -11.8682 -21.2047 -0.0682 1.6849 -4.6357 -0.4892 -3.7980 2.1112 4.1791 -4.9910 -1.6983 4.7872 -2.4509 -2.5151 12.6101 4.5389 -18.5081 -14.0926 7.1589 31.4547 -6.8691 2.6952 15.0909 -0.0000 0.0000 0.0000 -88.2696 6.2470 19.4547 17.3383 -27.3015 -4.2413 -0.0000 0.0000 -7.6322 12.1834 0.4740 0.1023 -7.1250 0.0000 -0.0000 -11.3375 30.3559 4.1259 -0.0000 0.0000 0.0000 81.2491 -4.2470 18.5485 -14.7654 23.8183 -3.1306 0.0000 -0.0000 -6.5838 -14.2124 -1.3555 0.3433 7.1250 -0.0000 -0.0000 9.8470 -31.2852 3.3452
